<?xml version="1.0" encoding="UTF-8" standalone="no"?>
<!-- Creator: CorelDRAW Home & Student X7 -->

<svg
   xmlns:dc="http://purl.org/dc/elements/1.1/"
   xmlns:cc="http://creativecommons.org/ns#"
   xmlns:rdf="http://www.w3.org/1999/02/22-rdf-syntax-ns#"
   xmlns:svg="http://www.w3.org/2000/svg"
   xmlns="http://www.w3.org/2000/svg"
   xmlns:sodipodi="http://sodipodi.sourceforge.net/DTD/sodipodi-0.dtd"
   xmlns:inkscape="http://www.inkscape.org/namespaces/inkscape"
   xml:space="preserve"
   width="200"
   height="200"
   version="1.1"
   style="clip-rule:evenodd;fill-rule:evenodd;image-rendering:optimizeQuality;shape-rendering:geometricPrecision;text-rendering:geometricPrecision"
   viewBox="0 0 1757.5893 1757.5893"
   id="svg925"
   sodipodi:docname="black-brocket-black-logo.svg"
   inkscape:version="0.92.3 (2405546, 2018-03-11)"><metadata
   id="metadata929"><rdf:RDF><cc:Work
       rdf:about=""><dc:format>image/svg+xml</dc:format><dc:type
         rdf:resource="http://purl.org/dc/dcmitype/StillImage" /><dc:title></dc:title></cc:Work></rdf:RDF></metadata><sodipodi:namedview
   pagecolor="#ffffff"
   bordercolor="#666666"
   borderopacity="1"
   objecttolerance="10"
   gridtolerance="10"
   guidetolerance="10"
   inkscape:pageopacity="0"
   inkscape:pageshadow="2"
   inkscape:window-width="1920"
   inkscape:window-height="960"
   id="namedview927"
   showgrid="false"
   units="px"
   inkscape:zoom="1.70375"
   inkscape:cx="57.185616"
   inkscape:cy="9.4162946"
   inkscape:window-x="0"
   inkscape:window-y="27"
   inkscape:window-maximized="1"
   inkscape:current-layer="svg925" />
 <defs
   id="defs902">
  <style
   type="text/css"
   id="style900">
   <![CDATA[
    .fil1 {fill:black}
    .fil0 {fill:black;fill-rule:nonzero}
   ]]>
  </style>
 </defs>
 <g
   id="Capa_x0020_1"
   transform="matrix(1.2599206,0,0,1.2599206,0,-2e-5)">
  <metadata
   id="CorelCorpID_0Corel-Layer" />
  <g
   id="_514646664">
   <path
   class="fil0"
   d="m 1083,499 c -2,-2 -1,-6 2,-7 3,-2 6,-1 8,2 16,32 28,65 36,99 9,34 13,69 13,105 0,122 -50,233 -130,314 -81,80 -192,130 -314,130 -23,0 -46,-2 -68,-5 -22,-4 -45,-9 -66,-16 -3,-1 -5,-4 -4,-7 1,-3 4,-4 7,-4 21,7 43,12 65,16 21,3 43,5 66,5 119,0 227,-49 306,-127 78,-79 127,-187 127,-306 0,-35 -5,-69 -13,-102 -8,-34 -20,-66 -35,-97 z"
   id="path905"
   inkscape:connector-curvature="0"
   style="fill:#000000;fill-rule:nonzero" />
   <path
   class="fil0"
   d="m 269,758 c 0,3 -2,5 -5,6 -3,0 -6,-2 -6,-5 -2,-10 -3,-20 -4,-31 0,-10 -1,-20 -1,-30 0,-123 50,-234 130,-315 81,-80 192,-130 315,-130 29,0 59,3 88,9 28,6 57,15 84,26 3,1 4,5 3,8 -1,2 -5,4 -7,3 -27,-12 -55,-20 -83,-26 -28,-6 -56,-8 -85,-8 -120,0 -228,48 -307,126 -78,79 -126,187 -126,307 0,10 0,20 1,30 0,10 1,20 3,30 z"
   id="path907"
   inkscape:connector-curvature="0"
   style="fill:#000000;fill-rule:nonzero" />
   <path
   class="fil0"
   d="m 116,796 21,-10 h 2 v 71 c 0,4 0,7 1,8 0,2 1,3 2,3 1,1 4,1 8,1 v 3 h -32 v -3 c 4,0 6,0 8,-1 1,0 2,-1 2,-2 0,-1 1,-4 1,-9 v -46 c 0,-6 -1,-10 -1,-12 0,-1 -1,-2 -2,-2 0,-1 -1,-1 -2,-1 -2,0 -4,0 -7,2 z m 56,77 v -2 c 5,0 10,-1 15,-4 4,-2 9,-6 13,-12 4,-7 7,-13 9,-20 -6,4 -12,6 -17,6 -6,0 -11,-2 -16,-7 -4,-5 -6,-11 -6,-18 0,-8 2,-14 6,-20 6,-7 12,-10 20,-10 7,0 13,3 18,8 6,7 9,16 9,26 0,10 -2,19 -7,27 -4,8 -11,14 -19,20 -7,4 -14,6 -22,6 z m 38,-43 c 1,-5 1,-10 1,-13 0,-4 0,-8 -2,-13 -1,-4 -3,-8 -6,-10 -2,-3 -5,-4 -8,-4 -4,0 -7,1 -10,5 -2,3 -4,8 -4,14 0,9 2,16 6,21 2,3 6,5 10,5 1,0 4,0 6,-1 3,-1 5,-2 7,-4 z"
   id="path909"
   inkscape:connector-curvature="0"
   style="fill:#000000;fill-rule:nonzero" />
   <path
   class="fil0"
   d="m 1231,841 v 8 h -11 v 23 h -10 v -23 h -36 v -8 l 39,-55 h 7 v 55 z m -21,0 v -42 l -30,42 z m 81,-54 -5,11 h -25 l -6,11 c 11,2 20,6 26,12 6,6 9,13 9,20 0,5 -1,9 -3,12 -2,4 -4,7 -7,10 -3,3 -6,5 -9,6 -5,3 -10,4 -15,4 -5,0 -8,-1 -11,-3 -2,-1 -3,-3 -3,-5 0,-1 0,-2 1,-3 1,-1 2,-2 4,-2 1,0 2,1 3,1 1,0 2,1 4,2 3,2 6,4 9,4 5,0 9,-2 13,-6 4,-4 5,-8 5,-13 0,-5 -1,-10 -4,-15 -4,-4 -8,-7 -14,-10 -4,-2 -11,-3 -18,-3 l 16,-33 z"
   id="path911"
   inkscape:connector-curvature="0"
   style="fill:#000000;fill-rule:nonzero" />
   <path
   class="fil0"
   d="m 698,22 c 186,0 355,76 477,198 123,122 198,291 198,478 0,186 -75,355 -198,477 -122,123 -291,198 -477,198 -187,0 -356,-75 -478,-198 C 98,1053 22,884 22,698 22,511 98,342 220,220 342,98 511,22 698,22 Z m 469,206 C 1047,108 881,33 698,33 514,33 348,108 228,228 108,348 33,514 33,698 c 0,183 75,349 195,469 120,121 286,195 470,195 183,0 349,-74 469,-195 121,-120 195,-286 195,-469 0,-184 -74,-350 -195,-470 z"
   id="path913"
   inkscape:connector-curvature="0"
   style="fill:#000000;fill-rule:nonzero" />
   <path
   class="fil0"
   d="m 698,0 c 192,0 367,78 493,204 126,127 204,301 204,494 0,192 -78,367 -204,493 -126,126 -301,204 -493,204 -193,0 -367,-78 -494,-204 C 78,1065 0,890 0,698 0,505 78,331 204,204 331,78 505,0 698,0 Z m 485,212 C 1059,88 887,11 698,11 508,11 336,88 212,212 88,336 11,508 11,698 c 0,189 77,361 201,485 124,124 296,201 486,201 189,0 361,-77 485,-201 124,-124 201,-296 201,-485 0,-190 -77,-362 -201,-486 z"
   id="path915"
   inkscape:connector-curvature="0"
   style="fill:#000000;fill-rule:nonzero" />
   <path
   class="fil1"
   d="m 340,657 c 3,-22 13,-47 27,-59 38,-32 63,-47 106,-72 28,-17 60,-16 108,-20 39,-3 93,7 143,32 28,13 49,8 81,29 20,14 59,-20 67,-67 -1,-9 -1,-16 1,-32 1,-12 -7,-26 -17,-27 -24,-2 -34,-18 -36,-36 -5,-33 2,-42 27,-39 12,2 38,11 49,45 1,-1 2,-1 3,-1 -2,-18 1,-38 0,-48 -2,-16 7,-19 10,-6 4,17 7,25 8,52 7,0 19,0 26,0 4,-14 5,-49 5,-56 0,-7 7,-11 10,-1 4,15 4,48 5,58 1,0 3,1 5,1 0,-17 20,-31 26,-36 14,-11 44,-17 49,-3 6,21 7,47 -9,64 -14,14 -27,3 -42,15 -4,3 -8,5 -10,8 0,4 0,9 0,15 0,5 0,19 -2,31 -1,5 -2,22 -7,29 -7,11 -12,19 -24,30 0,19 -8,49 -26,91 -16,39 -45,57 -57,69 -24,26 -33,47 -48,52 -20,6 -29,11 -29,37 -1,34 -12,57 -17,83 -4,17 -12,18 -12,62 -1,26 -3,51 -3,84 1,16 20,19 23,38 -10,2 -39,3 -40,-5 -4,-27 -15,0 -8,-52 3,-20 1,-41 2,-55 4,-47 -1,-54 -2,-72 -2,-18 -2,-30 -4,-49 -3,-30 -12,-66 -12,-101 -1,-14 18,-21 26,-43 -7,13 -15,18 -26,30 -5,4 -5,15 -3,26 -12,8 -44,12 -65,11 -44,-1 -74,-5 -102,-30 4,-33 3,-54 -1,-78 0,35 3,73 -12,105 -27,62 -50,64 -75,93 -25,28 -26,77 -7,115 11,23 13,64 22,75 9,10 18,14 20,29 -22,2 -38,1 -40,-7 -10,-49 -25,-20 -27,-53 -1,-39 -7,-46 -12,-66 -17,-94 -27,-67 -26,-98 1,-11 49,-43 35,-69 -13,-25 -25,-31 -35,-60 -7,-20 -11,-70 -11,-102 -2,20 1,52 1,67 -1,16 -14,20 -18,20 -15,-4 -23,-21 -20,-53 z m 76,155 c 13,-20 3,-29 -4,-39 -20,19 -53,43 -65,46 -15,3 -17,4 -16,21 5,57 -1,112 -7,162 -1,16 15,14 17,29 3,16 7,25 14,26 7,1 23,1 29,0 -2,-15 -15,-29 -20,-36 -5,-9 -9,-19 -10,-30 -4,-29 -6,-63 6,-93 5,-13 19,-26 25,-33 1,-5 -3,-14 5,-21 12,-12 18,-18 26,-32 z m 400,24 c 0,-15 9,-34 8,-60 -3,2 -10,3 -16,6 -6,4 -13,10 -14,19 -1,10 -2,21 -5,38 -2,15 -7,30 -11,39 3,29 7,46 7,74 0,13 -2,39 -2,52 0,20 7,15 11,23 3,5 2,17 3,24 0,9 27,8 35,6 0,-19 -18,-27 -19,-43 -2,-26 -5,-51 -5,-76 0,-17 4,-33 5,-49 1,-21 4,-32 3,-53 z M 924,563 c -3,-1 -4,-5 -3,-6 7,-1 16,0 22,0 4,0 2,4 -1,6 -4,2 -14,2 -18,0 z m -1,-23 c -1,-2 -2,-5 1,-6 3,-3 11,-3 16,-2 6,2 4,4 2,7 0,0 0,0 -1,0 -1,0 -4,1 -4,4 -3,0 -7,1 -10,0 0,-2 -2,-3 -3,-3 -1,0 -1,0 -1,0 z m -40,-49 c -1,-11 -3,5 -2,8 1,27 11,45 24,55 4,2 9,7 4,-4 -3,-7 -4,-16 -10,-24 -7,-11 -14,-16 -16,-35 z m 91,-22 c 0,2 0,4 0,6 -1,2 -3,4 -6,4 -3,0 -5,0 -7,-2 0,-9 10,-10 13,-8 z m -22,19 c 0,-4 1,-10 2,-13 2,-6 7,-10 12,-11 6,-2 6,0 0,2 -5,1 -10,3 -14,22 z m -39,1 c 0,-5 -1,-10 -2,-13 -2,-6 -6,-10 -11,-12 -3,-1 -11,0 -9,2 0,1 4,-1 9,0 5,2 9,4 13,23 z m -22,-1 c -5,-3 -8,-10 -4,-16 -3,13 13,20 19,11 2,4 3,9 3,15 -2,-13 -11,-6 -18,-10 z m 13,-10 c -2,1 -4,1 -8,1 -3,0 -5,-3 -5,-5 -1,-2 -1,-3 0,-3 1,-5 12,-3 13,7 z m 43,-74 c 0,6 3,6 3,1 0,-6 0,-8 -1,-17 0,8 -1,10 -2,16 z m -45,3 c 0,6 6,6 5,1 -3,-14 -2,-24 -5,-50 1,19 -2,34 0,49 z m 72,11 c 1,10 3,7 4,0 1,-8 2,-11 5,-17 3,-6 10,-12 16,-17 3,-2 4,-5 -4,0 -8,5 -12,9 -16,16 -3,5 -5,13 -5,18 z M 846,382 c 14,1 33,9 38,38 0,-19 -7,-34 -27,-42 -7,-3 -17,-6 -23,-2 -5,3 -7,12 -7,18 1,11 5,29 14,34 8,4 13,5 21,9 6,3 11,5 15,11 4,6 1,-10 -17,-19 -18,-8 -21,-11 -24,-25 -2,-7 -2,-23 10,-22 z m -81,696 c -2,-4 -3,-5 -8,-6 1,-2 6,-3 8,-3 3,2 4,3 5,6 1,3 -2,3 -5,3 z m -20,-54 c 0,4 -1,8 -2,12 -1,7 1,7 2,6 2,-2 7,-4 9,-5 0,-9 -5,-1 -5,-26 1,-16 2,-45 5,-61 -4,11 -4,20 -5,31 -1,7 -1,14 -2,20 0,4 -1,14 -2,23 z m -264,51 c -3,-4 -6,-7 -10,-10 1,-1 3,-2 5,-2 4,2 6,5 9,9 2,3 -3,5 -4,3 z m -20,-12 c -1,3 0,5 2,3 2,-4 9,-6 13,-7 1,-3 -1,-3 -3,-4 -5,-5 -9,-10 -12,-15 -3,-5 0,3 1,5 1,5 1,8 1,11 1,4 -1,5 -2,7 z"
   id="path917"
   inkscape:connector-curvature="0"
   style="fill:#000000" />
   <path
   class="fil1"
   d="m 311,1172 c -5,-4 -9,-8 -12,-12 -2,-5 -4,-10 -4,-16 0,-5 1,-11 3,-18 3,-6 7,-13 12,-20 7,-9 15,-16 22,-20 8,-4 16,-6 23,-6 8,1 15,4 22,9 7,5 12,12 14,18 3,7 3,15 1,23 -3,8 -7,16 -14,25 -7,10 -15,16 -23,21 -7,4 -15,6 -23,5 -7,-1 -14,-4 -21,-9 z m 13,-58 c -9,12 -15,23 -16,32 -2,9 1,16 8,22 5,3 9,5 15,4 5,0 10,-3 16,-7 6,-4 11,-10 17,-17 6,-9 11,-17 14,-24 2,-7 3,-13 2,-18 -1,-5 -4,-9 -8,-12 -3,-3 -7,-5 -11,-5 -4,0 -8,1 -12,2 -4,2 -8,5 -12,9 -5,4 -9,8 -13,14 z m 107,84 -11,23 c -2,3 -3,5 -3,7 -1,2 -1,3 -1,4 0,1 1,2 1,3 1,1 2,2 4,4 l -2,3 -29,-15 2,-3 c 3,1 6,1 7,1 1,-1 3,-2 4,-3 1,-2 2,-4 4,-8 l 30,-58 c 1,-3 2,-6 3,-7 0,-2 0,-3 0,-4 0,-1 0,-2 -1,-3 -1,-1 -2,-2 -4,-4 l 2,-3 34,17 c 10,5 17,11 21,17 3,7 3,14 -1,22 -4,6 -8,11 -14,13 -5,3 -12,4 -20,3 v 0 c 2,3 3,6 4,9 1,3 2,7 2,13 v 14 c 1,4 1,8 1,10 1,2 1,4 2,6 1,2 2,3 4,4 l -1,4 -19,-10 c -1,-3 -1,-6 -1,-10 0,-3 0,-7 0,-11 l -1,-14 c 0,-4 0,-8 0,-10 -1,-2 -1,-4 -2,-5 0,-1 -1,-2 -2,-3 -1,-1 -3,-2 -5,-3 z m 24,-47 -21,41 8,4 c 4,2 7,3 10,4 3,0 6,0 9,0 2,-1 5,-2 8,-4 3,-3 5,-6 7,-10 2,-4 3,-8 3,-12 0,-3 -1,-7 -3,-10 -2,-3 -6,-5 -11,-8 -4,-2 -8,-4 -10,-5 z m 84,117 c -1,3 -1,6 -1,7 -1,2 0,3 0,4 0,1 1,2 1,3 1,1 3,2 5,3 l -1,4 -31,-9 1,-3 c 3,0 5,0 7,-1 1,-1 2,-2 3,-4 1,-1 1,-4 2,-8 l 18,-63 c 1,-4 1,-6 2,-8 0,-1 0,-3 -1,-4 0,-1 -1,-1 -1,-2 -1,-1 -3,-2 -5,-3 l 1,-4 31,9 -1,3 c -2,0 -4,0 -5,1 -1,0 -2,0 -3,1 0,1 -1,2 -2,3 -1,2 -1,4 -2,8 z m 131,41 -6,1 -5,-7 c -4,2 -7,3 -11,4 -3,0 -8,0 -12,0 -13,-2 -22,-7 -28,-17 -5,-9 -7,-23 -5,-40 2,-11 5,-20 9,-28 4,-7 10,-13 17,-17 8,-3 16,-4 24,-3 5,0 10,1 14,2 4,1 9,3 14,4 l -2,21 -8,-1 c -1,-4 -2,-8 -3,-11 -2,-3 -4,-5 -7,-6 -2,-1 -5,-2 -9,-3 -6,0 -11,1 -15,4 -5,3 -9,8 -12,14 -3,7 -5,15 -6,25 -1,10 -1,18 0,25 1,8 3,13 7,17 3,4 7,7 13,7 6,1 11,0 14,-2 3,-2 5,-6 5,-12 l 1,-4 c 1,-5 1,-8 0,-10 0,-2 0,-4 -2,-5 -1,-1 -2,-2 -5,-3 v -4 l 31,3 -1,4 c -2,1 -3,1 -4,2 -1,0 -2,1 -2,2 -1,2 -2,3 -2,5 0,1 -1,4 -1,7 z m 79,-21 c 1,3 1,6 1,7 1,2 1,3 2,4 0,1 1,1 2,2 1,0 3,1 5,1 l 1,4 -32,2 -1,-3 c 3,-1 5,-2 6,-3 1,-2 2,-3 2,-5 0,-2 0,-4 0,-8 l -5,-66 c 0,-3 -1,-6 -1,-7 0,-2 -1,-3 -1,-4 -1,-1 -2,-2 -3,-2 -1,-1 -3,-1 -5,-1 v -4 l 32,-3 v 4 c -2,1 -4,2 -5,2 -1,1 -1,2 -2,2 0,1 -1,3 -1,4 0,2 0,5 0,8 z m 113,-45 c 3,2 5,4 7,6 1,2 3,4 5,7 l 1,-1 c -1,-3 -3,-8 -5,-17 -3,-9 -5,-17 -7,-24 l -4,-16 c -1,-3 -2,-5 -3,-7 0,-1 -1,-2 -2,-3 -1,-1 -2,-1 -3,-2 -1,0 -2,0 -5,0 l -1,-4 27,-7 1,4 c -2,1 -4,2 -5,3 0,0 -1,1 -1,2 -1,1 -1,2 -1,4 1,2 1,4 2,8 l 23,82 -9,3 -60,-58 c -4,-3 -6,-6 -8,-7 -2,-2 -3,-4 -5,-5 h -1 c 1,4 4,10 6,20 3,10 6,20 9,30 l 4,15 c 1,3 2,5 2,7 1,1 2,2 2,3 1,1 2,1 3,2 2,0 3,0 6,0 l 1,4 -27,7 -1,-4 c 3,-1 5,-3 5,-4 1,-1 1,-3 1,-5 0,-1 -1,-4 -2,-8 l -17,-63 c -1,-4 -2,-6 -3,-7 0,-2 -1,-3 -2,-4 -1,0 -2,-1 -3,-1 -1,0 -2,-1 -5,-1 l -1,-3 23,-7 z m 131,-9 -2,-3 c 2,-2 4,-3 5,-4 1,-1 1,-3 1,-4 0,-1 0,-3 -1,-4 -1,-2 -2,-3 -3,-5 -1,-2 -3,-3 -5,-5 l -7,-8 -31,16 1,8 c 0,4 1,7 1,9 1,1 1,3 2,5 1,2 3,4 5,4 2,1 5,1 8,0 l 1,3 -29,15 -2,-4 c 3,-1 4,-4 5,-7 1,-4 1,-8 0,-14 l -9,-90 11,-5 61,65 c 3,3 5,5 7,6 1,2 3,3 5,3 2,1 4,1 6,0 l 1,3 z m -44,-24 28,-14 -35,-38 z m 126,-41 15,-13 c 2,-1 3,-3 4,-4 1,-1 2,-2 2,-3 1,-1 1,-2 1,-4 0,-1 0,-2 -1,-4 0,-2 -1,-4 -2,-6 -1,-2 -2,-5 -4,-9 l 5,-5 19,24 -52,44 -2,-2 c 2,-3 3,-5 3,-7 0,-1 0,-3 -1,-4 -1,-2 -3,-4 -5,-7 l -43,-50 c -3,-3 -4,-5 -6,-6 -1,-1 -2,-1 -3,-2 -1,0 -2,0 -3,0 -1,1 -3,1 -5,2 l -2,-3 24,-20 2,2 c -1,2 -2,4 -2,5 -1,1 -1,2 -1,3 0,1 1,2 2,3 1,2 2,4 5,7 z"
   id="path919"
   inkscape:connector-curvature="0"
   style="fill:#000000" />
   <path
   class="fil1"
   d="m 214,578 -4,-2 c 1,-3 1,-6 0,-7 -1,-2 -2,-3 -4,-4 -1,-1 -4,-3 -8,-4 l -69,-26 c -3,-1 -6,-2 -8,-2 -2,-1 -3,-1 -4,0 -1,0 -2,0 -3,1 -1,1 -2,2 -4,5 l -4,-2 16,-43 c 3,-9 7,-15 11,-19 3,-5 7,-8 12,-9 4,-1 9,0 15,2 4,1 8,4 11,7 2,3 4,6 6,10 1,4 1,8 2,13 v 0 c 5,-6 11,-10 16,-12 6,-2 12,-2 19,0 7,3 12,7 15,12 4,5 5,10 5,17 0,6 -1,14 -5,22 z m -45,-61 c 3,-8 3,-14 1,-20 -2,-6 -7,-10 -15,-13 -3,-1 -7,-2 -9,-2 -3,1 -6,2 -8,3 -2,2 -4,4 -6,7 -2,2 -3,5 -4,8 -1,2 -2,5 -3,8 -1,4 -2,6 -2,8 l 41,15 z m 47,34 c 1,-4 3,-8 5,-13 3,-7 4,-13 3,-17 0,-4 -1,-8 -4,-11 -3,-3 -7,-6 -12,-8 -5,-2 -10,-2 -14,-2 -4,1 -7,3 -10,6 -3,4 -6,9 -9,16 l -4,12 z m 44,-101 12,-19 c 1,-2 2,-4 2,-5 1,-2 1,-3 2,-5 0,-1 0,-2 -1,-4 0,-1 -1,-2 -2,-4 -1,-2 -2,-3 -4,-5 -2,-2 -5,-5 -8,-9 l 4,-7 28,19 -40,65 -3,-2 c 1,-4 1,-6 1,-8 -1,-2 -2,-3 -3,-4 -2,-2 -4,-4 -8,-6 l -62,-38 c -3,-2 -6,-4 -7,-4 -2,-1 -3,-1 -5,-1 -1,0 -2,0 -3,1 -1,0 -3,1 -5,3 l -3,-2 19,-30 3,2 c -1,2 -1,4 -1,5 0,2 0,3 0,4 1,1 2,2 3,3 1,2 4,3 7,5 z m 84,-95 -3,-3 c 1,-3 2,-5 3,-6 0,-2 0,-3 0,-4 -1,-2 -2,-3 -3,-4 -2,-2 -3,-3 -5,-4 -2,-1 -4,-3 -7,-4 l -10,-5 -27,29 4,8 c 2,4 4,7 5,8 2,2 3,4 4,5 3,2 5,3 7,3 3,0 5,-1 8,-4 l 3,3 -24,27 -3,-3 c 1,-3 2,-6 1,-10 -1,-4 -2,-9 -5,-14 l -45,-90 9,-9 89,42 c 4,2 7,4 10,5 2,0 4,1 6,1 2,-1 4,-1 6,-3 l 3,3 z m -56,-8 24,-26 -51,-25 z m 88,-165 13,19 -6,4 c -4,-3 -8,-5 -11,-6 -4,-1 -7,-1 -10,-1 -3,1 -6,3 -9,5 -5,3 -8,8 -9,14 -2,5 -1,12 2,20 2,8 6,16 13,25 7,9 13,16 19,21 7,5 13,8 18,9 6,0 11,-1 16,-5 4,-2 7,-5 8,-8 2,-3 3,-6 3,-9 -1,-4 -1,-9 -3,-14 l 6,-5 15,19 c -4,5 -7,9 -12,13 -4,4 -8,7 -14,11 -11,9 -23,11 -34,8 -12,-4 -24,-13 -35,-29 -7,-9 -12,-19 -14,-29 -2,-9 -2,-18 1,-27 3,-8 9,-15 17,-21 4,-3 8,-6 12,-8 4,-2 8,-4 14,-6 z m 86,12 2,-1 c 2,0 4,-2 5,-3 1,-1 3,-3 4,-6 1,-2 3,-7 5,-13 3,-8 5,-13 6,-16 1,-4 1,-8 1,-10 0,-2 0,-3 -1,-5 -1,-2 -2,-3 -3,-3 -2,-1 -4,-1 -6,0 l -2,-4 34,-14 2,4 c -2,1 -3,2 -4,4 -1,1 -3,3 -4,5 -1,3 -2,6 -4,11 l -14,41 46,29 c 5,3 8,6 11,7 2,1 4,1 6,1 2,1 4,0 6,0 l 1,4 -34,14 -2,-4 c 2,-1 3,-2 4,-3 1,-1 1,-2 0,-3 0,-1 -1,-2 -2,-3 -1,-1 -3,-2 -5,-3 l -29,-20 c -4,-2 -6,-4 -8,-4 -1,-1 -2,-1 -4,-1 -1,0 -3,0 -5,1 l -4,1 14,33 c 1,4 2,6 3,8 1,1 2,2 3,3 1,1 2,1 3,1 2,1 4,0 6,0 l 2,4 -33,14 -1,-4 c 2,-2 4,-4 5,-6 1,-1 1,-3 0,-5 0,-2 -1,-5 -3,-9 l -28,-67 c -1,-4 -3,-7 -3,-8 -1,-2 -2,-3 -3,-3 -1,-1 -2,-1 -4,-2 -1,0 -3,0 -5,1 l -2,-4 33,-14 1,4 c -2,2 -3,3 -4,4 -1,1 -1,2 -1,3 -1,1 0,3 0,4 0,2 1,5 3,9 z m 179,14 v -4 c 3,-1 5,-2 7,-4 1,-1 1,-2 2,-4 0,-2 0,-6 0,-10 l -3,-73 c 0,-4 0,-7 -1,-8 0,-2 -1,-3 -1,-4 -1,-1 -2,-2 -3,-3 -1,0 -3,-1 -6,-1 v -5 l 46,-1 c 9,-1 17,0 22,2 6,1 10,4 13,8 2,3 4,8 4,14 0,5 0,9 -2,13 -2,4 -4,7 -7,9 -3,3 -7,5 -12,7 v 1 c 8,2 14,5 18,10 4,5 7,10 7,17 0,8 -1,14 -5,19 -3,5 -7,9 -14,11 -6,2 -13,4 -22,4 z m 38,-65 c 8,-1 15,-3 19,-7 5,-5 7,-11 6,-19 0,-4 -1,-7 -2,-9 -1,-3 -3,-5 -6,-6 -2,-2 -4,-3 -8,-3 -3,-1 -6,-1 -9,-1 -3,0 -5,0 -9,1 -3,0 -6,0 -8,0 l 2,44 z m -13,56 c 4,0 9,0 14,0 7,0 13,-2 17,-4 4,-2 7,-5 9,-8 1,-4 2,-9 2,-14 0,-5 -2,-10 -4,-13 -2,-4 -5,-6 -9,-8 -5,-2 -10,-2 -18,-2 l -13,1 z m 116,-38 -4,28 c -1,4 -1,7 -1,9 0,2 0,3 0,4 1,2 1,2 2,3 1,1 3,2 6,3 l -1,4 -35,-6 v -4 c 4,0 6,-1 8,-2 1,0 2,-2 3,-4 0,-2 1,-5 2,-9 l 11,-72 c 1,-4 1,-7 1,-9 0,-1 0,-3 0,-4 -1,-1 -2,-2 -3,-3 -1,0 -2,-1 -5,-2 l 1,-5 41,7 c 13,2 23,6 28,12 6,6 8,14 7,23 -2,8 -5,14 -10,19 -5,5 -12,8 -21,9 v 1 c 3,2 6,4 8,7 2,3 4,8 6,14 l 5,15 c 2,4 3,7 4,10 2,2 3,4 4,5 2,2 4,3 6,4 v 4 l -23,-4 c -2,-3 -4,-7 -5,-10 -1,-4 -3,-8 -4,-12 l -5,-15 c -1,-4 -3,-8 -4,-10 -1,-2 -2,-4 -3,-5 -1,-1 -2,-2 -4,-2 -1,-1 -3,-1 -6,-2 z m 9,-57 -8,50 10,1 c 5,1 9,1 12,1 3,0 6,-1 9,-2 2,-2 5,-4 7,-8 2,-3 4,-7 4,-12 1,-5 1,-10 0,-14 -1,-3 -4,-7 -7,-9 -4,-2 -8,-4 -15,-5 -5,-1 -9,-1 -12,-2 z m 103,143 c -7,-2 -12,-6 -16,-10 -4,-4 -7,-10 -9,-15 -2,-6 -2,-13 -1,-21 1,-7 3,-16 7,-25 5,-12 11,-21 18,-28 7,-6 15,-10 24,-12 8,-1 17,0 25,4 9,4 16,9 21,16 4,7 6,15 6,24 0,9 -3,19 -8,31 -5,12 -11,21 -18,28 -7,7 -15,11 -24,12 -8,1 -17,0 -25,-4 z m -2,-66 c -7,16 -10,29 -9,39 1,10 6,17 15,21 6,3 11,3 17,1 5,-2 11,-6 16,-12 5,-6 9,-14 13,-23 5,-11 8,-21 9,-30 1,-8 0,-15 -3,-20 -2,-5 -6,-9 -11,-11 -5,-2 -9,-3 -14,-2 -4,1 -8,3 -12,6 -4,3 -8,7 -11,12 -4,6 -7,12 -10,19 z m 196,51 -15,19 -6,-5 c 2,-5 3,-9 3,-12 0,-4 -1,-7 -2,-10 -2,-2 -4,-5 -7,-7 -5,-4 -10,-5 -16,-5 -6,0 -12,3 -19,7 -7,5 -14,12 -20,20 -7,9 -12,17 -15,25 -3,7 -4,14 -3,20 1,5 4,10 9,14 3,2 7,4 10,5 3,1 6,1 10,-1 3,-1 7,-3 12,-6 l 7,5 -15,19 c -5,-2 -10,-4 -15,-7 -5,-3 -10,-6 -15,-10 -12,-9 -17,-20 -17,-32 0,-12 6,-26 17,-41 8,-10 15,-17 24,-22 8,-5 17,-7 26,-6 9,0 17,4 26,10 4,3 7,6 10,9 4,3 7,7 11,11 z m 13,81 2,2 c 2,1 3,3 5,4 2,0 4,1 7,2 3,0 7,0 14,0 8,0 14,0 17,0 4,-1 7,-1 10,-2 1,-1 3,-1 4,-2 2,-2 2,-4 2,-5 0,-2 0,-4 -2,-5 l 3,-3 25,27 -3,3 c -2,-1 -3,-2 -5,-3 -2,0 -4,-1 -7,-1 -2,0 -6,0 -12,0 h -42 l -13,53 c -2,5 -2,9 -3,12 0,3 0,5 1,7 0,2 1,3 2,5 l -3,3 -25,-28 3,-3 c 2,2 3,2 4,3 1,0 2,0 3,-1 1,-1 2,-2 2,-3 1,-2 2,-4 2,-6 l 9,-34 c 1,-4 2,-7 2,-9 0,-1 0,-3 -1,-4 0,-1 -1,-3 -2,-4 l -3,-3 -27,23 c -3,3 -5,5 -6,6 -1,1 -2,3 -2,4 0,1 0,2 0,3 0,2 1,3 2,6 l -3,3 -24,-27 3,-3 c 3,2 6,3 7,4 2,0 4,-1 5,-2 2,-1 5,-3 8,-6 l 54,-48 c 3,-3 5,-5 6,-6 1,-2 2,-3 2,-4 1,-1 1,-2 0,-4 0,-1 -1,-3 -2,-5 l 3,-3 24,27 -3,2 c -2,-1 -4,-2 -5,-2 -1,-1 -2,-1 -3,-1 -2,0 -3,1 -5,2 -1,1 -3,3 -6,5 z m 147,117 -22,13 -4,-7 c 2,-2 3,-4 5,-6 1,-2 2,-4 3,-5 0,-2 1,-3 1,-5 0,-1 0,-3 -1,-4 0,-2 -1,-3 -2,-5 l -14,-23 -38,22 9,16 c 2,2 3,4 4,5 2,0 3,1 5,1 2,0 5,-1 8,-2 l 4,7 -27,16 -5,-6 c 3,-3 5,-5 6,-7 1,-1 1,-3 1,-4 0,-2 -1,-4 -2,-6 l -9,-16 -42,25 13,23 c 2,2 3,4 4,5 2,2 3,2 5,3 1,0 3,0 5,0 2,0 4,0 6,-1 3,0 6,-1 9,-2 l 5,7 -27,14 -40,-67 4,-2 c 2,2 4,4 6,4 2,1 3,1 5,0 2,-1 5,-2 9,-4 l 62,-38 c 4,-2 6,-3 8,-4 1,-2 2,-3 2,-4 1,-1 1,-2 1,-3 0,-1 0,-3 -1,-6 l 4,-2 z m 20,43 27,88 -29,8 -2,-7 c 4,-3 8,-5 10,-7 2,-2 4,-4 5,-6 1,-2 2,-3 2,-5 0,-2 0,-4 -1,-7 l -3,-10 -83,25 c -4,1 -6,2 -8,3 -2,1 -3,2 -4,3 -1,1 -1,2 -2,3 0,2 0,4 0,7 l -4,1 -11,-37 4,-1 c 1,1 2,3 3,4 1,1 1,2 2,2 1,1 2,1 3,2 1,0 3,0 5,0 1,-1 4,-1 7,-2 l 83,-25 -3,-10 c -1,-3 -2,-5 -3,-7 -1,-1 -2,-2 -4,-3 -2,-1 -5,-2 -8,-2 -3,0 -7,0 -12,0 l -2,-8 z"
   id="path921"
   inkscape:connector-curvature="0"
   style="fill:#000000" />
  </g>
 </g>
</svg>