<?xml version="1.0" encoding="UTF-8"?>
<!DOCTYPE svg PUBLIC "-//W3C//DTD SVG 1.1//EN" "http://www.w3.org/Graphics/SVG/1.1/DTD/svg11.dtd">
<!-- Creator: CorelDRAW Home & Student X7 -->
<svg xmlns="http://www.w3.org/2000/svg" xml:space="preserve" width="21.1666mm" height="21.1667mm" version="1.1" style="shape-rendering:geometricPrecision; text-rendering:geometricPrecision; image-rendering:optimizeQuality; fill-rule:evenodd; clip-rule:evenodd"
viewBox="0 0 270 270"
 xmlns:xlink="http://www.w3.org/1999/xlink">
 <defs>
  <style type="text/css">
   <![CDATA[
    .fil0 {fill:#AC2925}
    .fil1 {fill:white}
   ]]>
  </style>
 </defs>
 <g id="Capa_x0020_1">
  <metadata id="CorelCorpID_0Corel-Layer"/>
  <g id="_233138784">
   <rect class="fil0" width="270" height="270"/>
   <path class="fil1" d="M59 174l0 -78 16 0 32 53 0 -53 16 0 0 78 -17 0 -32 -54 0 54 -15 0zm92 -39c0,8 2,15 6,20 4,4 9,7 16,7 7,0 12,-3 16,-7 4,-5 6,-12 6,-20 0,-9 -2,-15 -6,-20 -4,-5 -9,-7 -16,-7 -7,0 -12,2 -16,7 -4,5 -6,11 -6,20zm-16 0c0,-13 4,-23 10,-30 7,-7 16,-11 28,-11 12,0 21,4 28,11 7,7 10,17 10,30 0,12 -3,22 -10,30 -7,7 -16,11 -28,11 -12,0 -21,-4 -28,-11 -6,-8 -10,-18 -10,-30z"/>
  </g>
 </g>
</svg>
