<?xml version="1.0" encoding="UTF-8" standalone="no"?>
<!-- Created with Inkscape (http://www.inkscape.org/) -->

<svg
   xmlns:dc="http://purl.org/dc/elements/1.1/"
   xmlns:cc="http://creativecommons.org/ns#"
   xmlns:rdf="http://www.w3.org/1999/02/22-rdf-syntax-ns#"
   xmlns:svg="http://www.w3.org/2000/svg"
   xmlns="http://www.w3.org/2000/svg"
   xmlns:sodipodi="http://sodipodi.sourceforge.net/DTD/sodipodi-0.dtd"
   xmlns:inkscape="http://www.inkscape.org/namespaces/inkscape"
   version="1.1"
   id="svg850"
   xml:space="preserve"
   width="250"
   height="250"
   viewBox="0 0 250.00001 250"
   sodipodi:docname="no.svg"
   inkscape:version="0.92.3 (2405546, 2018-03-11)"><metadata
     id="metadata856"><rdf:RDF><cc:Work
         rdf:about=""><dc:format>image/svg+xml</dc:format><dc:type
           rdf:resource="http://purl.org/dc/dcmitype/StillImage" /><dc:title></dc:title></cc:Work></rdf:RDF></metadata><defs
     id="defs854" /><sodipodi:namedview
     pagecolor="#ffffff"
     bordercolor="#666666"
     borderopacity="1"
     objecttolerance="10"
     gridtolerance="10"
     guidetolerance="10"
     inkscape:pageopacity="0"
     inkscape:pageshadow="2"
     inkscape:window-width="1920"
     inkscape:window-height="960"
     id="namedview852"
     showgrid="false"
     inkscape:zoom="0.57079013"
     inkscape:cx="478.30973"
     inkscape:cy="407.7526"
     inkscape:window-x="0"
     inkscape:window-y="27"
     inkscape:window-maximized="1"
     inkscape:current-layer="g858" /><g
     id="g858"
     inkscape:groupmode="layer"
     inkscape:label="ink_ext_XXXXXX"
     transform="matrix(1.3333333,0,0,-1.3333333,0,250.00001)"><g
       id="g900"
       transform="matrix(0.86189859,0,0,0.86189859,-451.58918,-7.7570798)"><path
         d="m 632.719,35.316 c -45.539,0 -82.457,36.916 -82.457,82.456 0,45.54 36.918,82.456 82.457,82.456 45.539,0 82.455,-36.916 82.455,-82.456 0,-45.54 -36.916,-82.456 -82.455,-82.456 z m 0,191.227 c -60.073,0 -108.772,-48.698 -108.772,-108.771 C 523.947,57.6988 572.646,9 632.719,9 692.791,9 741.49,57.6988 741.49,117.772 c 0,60.073 -48.699,108.771 -108.771,108.771"
         style="fill:#c2212b;fill-opacity:1;fill-rule:nonzero;stroke:none;stroke-width:0.1"
         id="path876"
         inkscape:connector-curvature="0" /><path
         d="m 684.84,169.661 -0.269,0.268 c -6.544,6.546 -17.155,6.546 -23.701,0 l -28.099,-28.099 -28.098,28.099 c -6.546,6.546 -17.157,6.546 -23.701,0 l -0.269,-0.268 c -6.545,-6.544 -6.545,-17.156 0,-23.701 l 28.099,-28.098 -28.099,-28.0991 c -6.545,-6.5457 -6.545,-17.157 0,-23.702 l 0.269,-0.2679 c 6.544,-6.5461 17.155,-6.5461 23.701,0 L 632.771,93.8922 660.87,65.793 c 6.546,-6.5461 17.157,-6.5461 23.701,0 l 0.269,0.2679 c 6.545,6.545 6.545,17.1563 0,23.702 l -28.099,28.0991 28.099,28.098 c 6.545,6.545 6.545,17.157 0,23.701"
         style="fill:#c2212b;fill-opacity:1;fill-rule:nonzero;stroke:none;stroke-width:0.1"
         id="path878"
         inkscape:connector-curvature="0" /></g><g
       id="g905"
       transform="matrix(0.98878122,0,0,0.99886593,478.19146,220.74664)"><path
         d="m 107.996,187.629 6.036,-6.037 c 11.539,6.143 24.702,9.636 38.686,9.636 14.544,0 28.2,-3.779 40.063,-10.389 l 19.17,19.17 c -17.044,11.088 -37.385,17.534 -59.233,17.534 -23.34,0 -44.961,-7.354 -62.6785,-19.868 6.7433,-1.596 12.9335,-5.022 17.9565,-10.046"
         style="fill:#7fcc2a;fill-opacity:1;fill-rule:nonzero;stroke:none;stroke-width:0.1"
         id="path880"
         inkscape:connector-curvature="0" /><path
         d="m 234.841,115.988 c 0.206,-2.38 0.333,-4.783 0.333,-7.216 0,-45.54 -36.917,-82.456 -82.456,-82.456 -45.539,0 -82.4559,36.916 -82.4559,82.456 0,3.098 0.1856,6.152 0.5188,9.162 l -16.2414,16.241 c -2.1848,2.186 -4.0661,4.593 -5.6293,7.168 C 45.6863,131.059 43.9469,120.118 43.9469,108.772 43.9469,48.6988 92.6453,0 152.718,0 212.791,0 261.49,48.6988 261.49,108.772 c 0,10.313 -1.436,20.292 -4.118,29.747 l -22.531,-22.531"
         style="fill:#7fcc2a;fill-opacity:1;fill-rule:nonzero;stroke:none;stroke-width:0.1"
         id="path882"
         inkscape:connector-curvature="0" /><path
         d="m 304.212,238.815 c -6.95,6.949 -18.22,6.949 -25.171,0 L 153.784,113.558 93.8531,173.488 c -6.9515,6.952 -18.2207,6.952 -25.1715,0 -6.9511,-6.95 -6.9511,-18.219 0,-25.17 L 141.198,75.8012 c 6.951,-6.9512 18.221,-6.9512 25.171,0 L 304.212,213.643 c 6.951,6.951 6.951,18.221 0,25.172"
         style="fill:#7fcc2a;fill-opacity:1;fill-rule:nonzero;stroke:none;stroke-width:0.1"
         id="path884"
         inkscape:connector-curvature="0" /></g></g></svg>