<?xml version="1.0" encoding="UTF-8"?>
<!DOCTYPE svg PUBLIC "-//W3C//DTD SVG 1.1//EN" "http://www.w3.org/Graphics/SVG/1.1/DTD/svg11.dtd">
<!-- Creator: CorelDRAW Home & Student X7 -->
<svg xmlns="http://www.w3.org/2000/svg" xml:space="preserve" width="21.1666mm" height="21.1667mm" version="1.1" style="shape-rendering:geometricPrecision; text-rendering:geometricPrecision; image-rendering:optimizeQuality; fill-rule:evenodd; clip-rule:evenodd"
viewBox="0 0 3947 3947"
 xmlns:xlink="http://www.w3.org/1999/xlink">
 <defs>
  <style type="text/css">
   <![CDATA[
    .fil0 {fill:#2C6DA5}
    .fil1 {fill:white}
   ]]>
  </style>
 </defs>
 <g id="Capa_x0020_1">
  <metadata id="CorelCorpID_0Corel-Layer"/>
  <g id="_312248648">
   <rect class="fil0" width="3947" height="3947"/>
   <g>
    <path class="fil1" d="M488 795c15,0 29,-2 41,-6 11,-5 21,-10 28,-18 7,-7 13,-15 17,-25 3,-11 5,-22 5,-33 0,-24 -7,-43 -22,-56 -15,-13 -37,-19 -68,-19l-52 0 0 157 51 0zm212 247l-75 0c-14,0 -24,-6 -30,-17l-93 -151c-4,-6 -8,-10 -12,-13 -4,-2 -10,-3 -18,-3l-35 0 0 184 -83 0 0 -472 135 0c30,0 56,3 77,10 22,7 40,16 53,28 14,12 24,26 31,43 6,17 10,35 10,55 0,16 -3,31 -7,45 -4,14 -11,27 -19,39 -8,11 -18,21 -30,30 -13,9 -26,16 -42,21 5,3 10,7 15,11 4,5 8,10 12,16l111 174zm130 -402l0 131 155 0 0 68 -155 0 0 133 197 0 0 70 -279 0 0 -472 279 0 0 70 -197 0zm564 291c5,0 9,2 12,6l33 37c-18,24 -40,42 -67,55 -26,12 -57,19 -94,19 -33,0 -62,-6 -89,-18 -26,-12 -48,-29 -67,-50 -19,-22 -33,-47 -43,-77 -9,-29 -14,-62 -14,-97 0,-35 5,-68 15,-97 11,-30 26,-55 45,-76 20,-22 43,-38 69,-50 27,-12 57,-18 89,-18 32,0 61,6 86,17 25,11 46,26 64,44l-28 41c-1,3 -4,5 -6,7 -3,2 -6,3 -11,3 -3,0 -6,-1 -9,-3 -3,-2 -7,-4 -11,-7 -4,-2 -8,-5 -13,-9 -5,-3 -11,-6 -18,-9 -7,-2 -15,-5 -23,-7 -9,-1 -20,-2 -31,-2 -20,0 -38,3 -55,11 -16,7 -30,18 -42,33 -12,14 -21,31 -28,52 -6,20 -9,44 -9,70 0,27 3,50 10,71 7,21 17,38 29,52 12,15 26,25 42,33 17,7 34,11 53,11 11,0 21,-1 31,-2 9,-1 17,-3 25,-6 7,-3 15,-7 21,-11 7,-5 14,-10 21,-16 2,-2 4,-4 6,-5 2,-1 5,-2 7,-2zm514 -125c0,35 -6,67 -16,96 -11,30 -26,55 -46,77 -19,22 -43,38 -71,50 -27,12 -58,19 -91,19 -34,0 -64,-7 -92,-19 -27,-12 -51,-28 -71,-50 -19,-22 -35,-47 -45,-77 -11,-29 -17,-61 -17,-96 0,-34 6,-66 17,-96 10,-29 26,-55 45,-76 20,-22 44,-39 71,-51 28,-12 58,-18 92,-18 22,0 43,3 63,8 20,6 38,14 54,24 17,10 32,22 45,37 13,14 24,30 34,48 9,18 16,37 21,58 4,21 7,43 7,66zm-84 0c0,-26 -4,-49 -10,-70 -7,-20 -16,-38 -28,-52 -12,-14 -27,-25 -44,-33 -17,-7 -37,-11 -58,-11 -22,0 -41,4 -59,11 -17,8 -32,19 -44,33 -12,14 -21,32 -28,52 -6,21 -10,44 -10,70 0,26 4,49 10,70 7,20 16,38 28,52 12,14 27,25 44,33 18,8 37,11 59,11 21,0 41,-3 58,-11 17,-8 32,-19 44,-33 12,-14 21,-32 28,-52 6,-21 10,-44 10,-70zm306 68c0,27 -3,51 -9,72 -6,22 -15,40 -27,55 -13,15 -28,26 -46,34 -18,9 -39,13 -63,13 -11,0 -22,-1 -33,-3 -10,-1 -21,-3 -33,-6 1,-9 1,-18 2,-26 1,-9 2,-18 2,-26 1,-5 3,-9 6,-12 3,-3 7,-5 12,-5 4,0 8,1 14,3 6,1 13,2 21,2 12,0 22,-2 31,-5 9,-4 17,-10 23,-17 6,-8 10,-19 13,-31 3,-13 5,-28 5,-46l0 -306 82 0 0 304zm516 -68c0,35 -5,67 -16,96 -10,30 -25,55 -45,77 -20,22 -43,38 -71,50 -27,12 -58,19 -92,19 -33,0 -64,-7 -91,-19 -28,-12 -51,-28 -71,-50 -20,-22 -35,-47 -46,-77 -11,-29 -16,-61 -16,-96 0,-34 5,-66 16,-96 11,-29 26,-55 46,-76 20,-22 43,-39 71,-51 27,-12 58,-18 91,-18 23,0 44,3 64,8 20,6 38,14 54,24 17,10 32,22 45,37 13,14 24,30 33,48 9,18 17,37 21,58 5,21 7,43 7,66zm-84 0c0,-26 -3,-49 -10,-70 -6,-20 -15,-38 -27,-52 -12,-14 -27,-25 -44,-33 -17,-7 -37,-11 -59,-11 -21,0 -41,4 -58,11 -17,8 -32,19 -44,33 -12,14 -21,32 -28,52 -6,21 -10,44 -10,70 0,26 4,49 10,70 7,20 16,38 28,52 12,14 27,25 44,33 17,8 37,11 58,11 22,0 42,-3 59,-11 17,-8 32,-19 44,-33 12,-14 21,-32 27,-52 7,-21 10,-44 10,-70zm388 -166l0 131 155 0 0 68 -155 0 0 133 197 0 0 70 -279 0 0 -472 279 0 0 70 -197 0zm643 -70l0 472 -43 0c-6,0 -11,-1 -16,-3 -4,-2 -9,-6 -13,-12l-231 -314c2,14 2,27 2,39l0 290 -72 0 0 -472 43 0c3,0 6,0 9,1 2,0 5,1 7,2 2,1 3,2 5,4 2,2 4,4 6,7l232 316c0,-7 -1,-15 -1,-22 -1,-8 -1,-14 -1,-21l0 -287 73 0zm-2817 955l-54 -157c-3,-7 -6,-15 -8,-25 -3,-10 -6,-20 -9,-31 -3,11 -5,21 -8,31 -3,10 -6,18 -9,26l-53 156 141 0zm145 178l-64 0c-7,0 -13,-2 -17,-6 -5,-3 -8,-8 -10,-14l-33 -96 -184 0 -33 96c-1,5 -4,10 -9,14 -5,4 -11,6 -18,6l-64 0 174 -472 84 0 174 472zm305 -72l0 72 -259 0 0 -472 82 0 0 400 177 0zm539 -400l0 472 -73 0 0 -305c0,-12 1,-25 2,-39l-134 268c-6,13 -16,19 -29,19l-11 0c-13,0 -23,-6 -29,-19l-136 -269c1,7 1,14 2,21 0,7 0,13 0,19l0 305 -72 0 0 -472 62 0c4,0 7,0 9,0 3,1 6,1 8,2 2,1 4,2 6,4 1,2 3,5 5,8l132 262c4,7 7,14 10,22 3,7 6,15 8,23 3,-8 6,-16 9,-24 3,-7 7,-14 10,-21l131 -262c1,-3 3,-6 5,-8 2,-2 4,-3 6,-4 2,-1 4,-1 7,-2 3,0 6,0 10,0l62 0zm332 294l-54 -157c-2,-7 -5,-15 -8,-25 -3,-10 -6,-20 -9,-31 -2,11 -5,21 -8,31 -3,10 -5,18 -8,26l-54 156 141 0zm145 178l-63 0c-7,0 -13,-2 -18,-6 -4,-3 -7,-8 -10,-14l-33 -96 -183 0 -33 96c-2,5 -5,10 -10,14 -4,4 -10,6 -17,6l-64 0 174 -472 84 0 173 472zm337 -111c5,0 9,2 12,5l32 38c-17,24 -40,42 -66,55 -26,12 -57,18 -94,18 -33,0 -63,-6 -89,-17 -26,-12 -48,-29 -67,-50 -19,-22 -33,-47 -43,-77 -10,-29 -14,-62 -14,-97 0,-35 5,-68 15,-97 11,-30 26,-55 45,-77 20,-21 43,-38 69,-49 27,-12 57,-18 89,-18 32,0 61,6 86,17 25,11 46,26 64,44l-28 41c-2,3 -4,5 -6,7 -3,2 -6,3 -11,3 -3,0 -6,-1 -9,-3 -3,-2 -7,-4 -11,-7 -4,-3 -8,-5 -13,-9 -5,-3 -11,-6 -18,-9 -7,-3 -15,-5 -23,-7 -9,-2 -20,-2 -31,-2 -20,0 -38,3 -55,11 -16,7 -30,18 -42,32 -12,15 -21,32 -28,53 -6,20 -9,44 -9,70 0,27 3,50 10,71 7,21 17,38 29,52 12,14 26,25 42,33 17,7 34,11 53,11 11,0 21,-1 31,-2 9,-1 17,-3 25,-6 7,-3 14,-7 21,-11 7,-5 14,-10 21,-17 2,-2 4,-3 6,-4 2,-2 5,-2 7,-2zm184 -291l0 131 155 0 0 67 -155 0 0 134 196 0 0 70 -279 0 0 -472 279 0 0 70 -196 0zm642 -70l0 472 -42 0c-7,0 -12,-1 -16,-3 -5,-3 -9,-6 -13,-12l-231 -315c1,15 2,28 2,40l0 290 -73 0 0 -472 43 0c4,0 7,0 9,1 3,0 5,0 7,1 2,1 4,3 6,5 1,2 3,4 6,7l232 316c-1,-7 -1,-15 -2,-22 0,-8 0,-15 0,-21l0 -287 72 0z"/>
    <path class="fil1" d="M1973 1936c296,0 535,239 535,534 0,130 -46,250 -123,342l-412 570 -416 -576c-5,-6 -34,-47 -33,-47 -54,-83 -85,-182 -85,-289 0,-295 239,-534 534,-534zm0 259c152,0 276,124 276,275 0,152 -124,276 -276,276 -151,0 -275,-124 -275,-276 0,-151 124,-275 275,-275z"/>
   </g>
  </g>
 </g>
</svg>
