<?xml version="1.0" encoding="UTF-8"?>
<!DOCTYPE svg PUBLIC "-//W3C//DTD SVG 1.1//EN" "http://www.w3.org/Graphics/SVG/1.1/DTD/svg11.dtd">
<!-- Creator: CorelDRAW Home & Student X7 -->
<svg xmlns="http://www.w3.org/2000/svg" xml:space="preserve" width="21.1666mm" height="21.1667mm" version="1.1" style="shape-rendering:geometricPrecision; text-rendering:geometricPrecision; image-rendering:optimizeQuality; fill-rule:evenodd; clip-rule:evenodd"
viewBox="0 0 950 950"
 xmlns:xlink="http://www.w3.org/1999/xlink">
 <defs>
  <style type="text/css">
   <![CDATA[
    .fil0 {fill:#5CB85A}
    .fil1 {fill:white}
   ]]>
  </style>
 </defs>
 <g id="Capa_x0020_1">
  <metadata id="CorelCorpID_0Corel-Layer"/>
  <g id="_314970368">
   <rect class="fil0" width="950" height="950"/>
   <path class="fil1" d="M313 527l55 0c2,15 8,26 19,33 10,7 24,11 44,11 16,0 28,-3 37,-9 8,-5 12,-14 12,-25 0,-17 -24,-31 -71,-41l-2 -1c-1,0 -3,-1 -6,-1 -25,-6 -44,-12 -54,-19 -10,-6 -17,-14 -22,-25 -5,-10 -8,-23 -8,-37 0,-27 9,-47 27,-61 18,-14 44,-21 78,-21 32,0 57,7 75,22 18,15 28,37 29,64l-54 0c-1,-13 -7,-23 -16,-30 -9,-7 -22,-10 -39,-10 -14,0 -26,2 -34,8 -8,6 -12,14 -12,25 0,14 16,25 47,32 8,2 15,4 19,5 20,5 35,9 43,12 8,3 15,6 22,9 11,6 19,15 25,25 5,10 8,22 8,36 0,29 -10,51 -29,67 -19,15 -46,23 -81,23 -34,0 -61,-8 -81,-24 -19,-16 -30,-39 -31,-68zm268 84l0 -273 56 0 0 273 -56 0z"/>
  </g>
 </g>
</svg>
